<svg width="114" height="32" viewBox="0 0 114 32" fill="none" xmlns="http://www.w3.org/2000/svg">
<path d="M32 16.0001C32 23.0461 32 26.5691 30.0393 28.9302C29.7046 29.3333 29.3333 29.7046 28.9302 30.0393C26.5691 32 23.0461 32 16.0001 32C8.95405 32 5.43105 32 3.06992 30.0393C2.66681 29.7046 2.29552 29.3333 1.96078 28.9302C0.000130174 26.5691 0.000130482 23.0461 0.000131098 16.0001C0.000131714 8.95405 0.000132022 5.43104 1.96079 3.06992C2.29552 2.66681 2.66682 2.29552 3.06992 1.96078C5.43105 0.000129284 8.95405 0.000129592 16.0001 0.000130208C23.0461 0.000130824 26.5691 0.000131132 28.9302 1.96078C29.3333 2.29552 29.7046 2.66681 30.0393 3.06992C32 5.43105 32 8.95405 32 16.0001Z" fill="#4D36DA"/>
<path d="M26 18.5C26 16.0147 23.9853 14 21.5 14H17V23H21.5C23.9853 23 26 20.9853 26 18.5Z" fill="#E0E0E0"/>
<path d="M5 15.5C5 11.3579 8.35786 8 12.5 8C16.6421 8 20 11.3579 20 15.5V23H12.5C8.35787 23 5 19.6421 5 15.5Z" fill="white"/>
<path d="M48.48 22.4639L47.36 19.1679H42.848L41.728 22.4639H40.368L44.272 11.2959H45.984L49.888 22.4639H48.48ZM45.136 12.5439H45.056L43.168 17.9839H47.024L45.136 12.5439ZM51.93 12.2719C51.6527 12.2719 51.45 12.2079 51.322 12.0799C51.2047 11.9412 51.146 11.7652 51.146 11.5519V11.3439C51.146 11.1305 51.2047 10.9599 51.322 10.8319C51.45 10.6932 51.6527 10.6239 51.93 10.6239C52.2073 10.6239 52.4047 10.6932 52.522 10.8319C52.65 10.9599 52.714 11.1305 52.714 11.3439V11.5519C52.714 11.7652 52.65 11.9412 52.522 12.0799C52.4047 12.2079 52.2073 12.2719 51.93 12.2719ZM51.29 14.2079H52.57V22.4639H51.29V14.2079ZM56.794 22.4639C56.346 22.4639 56.0047 22.3412 55.77 22.0959C55.546 21.8399 55.434 21.5092 55.434 21.1039V15.3279H54.074V14.2079H54.842C55.1193 14.2079 55.306 14.1545 55.402 14.0479C55.5087 13.9305 55.562 13.7332 55.562 13.4559V11.9199H56.714V14.2079H58.522V15.3279H56.714V21.3439H58.394V22.4639H56.794ZM65.3474 21.1199H65.2834C65.198 21.3119 65.0914 21.5039 64.9634 21.6959C64.846 21.8772 64.6967 22.0425 64.5154 22.1919C64.334 22.3305 64.1154 22.4425 63.8594 22.5279C63.6034 22.6132 63.3047 22.6559 62.9634 22.6559C62.11 22.6559 61.4327 22.3839 60.9314 21.8399C60.43 21.2852 60.1794 20.5065 60.1794 19.5039V14.2079H61.4594V19.2799C61.4594 20.7625 62.0887 21.5039 63.3474 21.5039C63.6034 21.5039 63.8487 21.4719 64.0834 21.4079C64.3287 21.3439 64.542 21.2479 64.7234 21.1199C64.9154 20.9919 65.0647 20.8319 65.1714 20.6399C65.2887 20.4372 65.3474 20.1972 65.3474 19.9199V14.2079H66.6274V22.4639H65.3474V21.1199ZM69.8491 22.6559C69.5078 22.6559 69.2571 22.5705 69.0971 22.3999C68.9478 22.2292 68.8731 22.0052 68.8731 21.7279V21.5199C68.8731 21.2425 68.9478 21.0185 69.0971 20.8479C69.2571 20.6772 69.5078 20.5919 69.8491 20.5919C70.1905 20.5919 70.4358 20.6772 70.5851 20.8479C70.7451 21.0185 70.8251 21.2425 70.8251 21.5199V21.7279C70.8251 22.0052 70.7451 22.2292 70.5851 22.3999C70.4358 22.5705 70.1905 22.6559 69.8491 22.6559ZM77.4565 22.6559C76.6992 22.6559 76.0165 22.5385 75.4085 22.3039C74.8005 22.0585 74.2832 21.7012 73.8565 21.2319C73.4298 20.7519 73.0992 20.1599 72.8645 19.4559C72.6298 18.7412 72.5125 17.9092 72.5125 16.9599C72.5125 16.0212 72.6298 15.1892 72.8645 14.4639C73.0992 13.7279 73.4298 13.1145 73.8565 12.6239C74.2832 12.1225 74.8005 11.7439 75.4085 11.4879C76.0165 11.2319 76.6992 11.1039 77.4565 11.1039C78.4912 11.1039 79.3445 11.3172 80.0165 11.7439C80.6885 12.1599 81.2272 12.8212 81.6325 13.7279L79.5365 14.8159C79.3872 14.3465 79.1525 13.9732 78.8325 13.6959C78.5232 13.4079 78.0645 13.2639 77.4565 13.2639C76.7418 13.2639 76.1658 13.4985 75.7285 13.9679C75.3018 14.4265 75.0885 15.0985 75.0885 15.9839V17.7759C75.0885 18.6612 75.3018 19.3385 75.7285 19.8079C76.1658 20.2665 76.7418 20.4959 77.4565 20.4959C78.0538 20.4959 78.5285 20.3359 78.8805 20.0159C79.2432 19.6852 79.5098 19.2905 79.6805 18.8319L81.6645 19.9839C81.2485 20.8372 80.6992 21.4985 80.0165 21.9679C79.3445 22.4265 78.4912 22.6559 77.4565 22.6559ZM85.2704 22.4639C84.4597 22.4639 83.8624 22.2665 83.4784 21.8719C83.105 21.4772 82.9184 20.9065 82.9184 20.1599V10.6239H85.2864V20.6239H86.3424V22.4639H85.2704ZM90.8501 22.6559C90.2315 22.6559 89.6768 22.5545 89.1861 22.3519C88.7061 22.1492 88.2955 21.8559 87.9541 21.4719C87.6235 21.0879 87.3675 20.6239 87.1861 20.0799C87.0048 19.5359 86.9141 18.9279 86.9141 18.2559C86.9141 17.5839 87.0048 16.9759 87.1861 16.4319C87.3675 15.8879 87.6235 15.4292 87.9541 15.0559C88.2955 14.6719 88.7061 14.3785 89.1861 14.1759C89.6768 13.9732 90.2315 13.8719 90.8501 13.8719C91.4688 13.8719 92.0181 13.9732 92.4981 14.1759C92.9888 14.3785 93.3995 14.6719 93.7301 15.0559C94.0715 15.4292 94.3328 15.8879 94.5141 16.4319C94.6955 16.9759 94.7861 17.5839 94.7861 18.2559C94.7861 18.9279 94.6955 19.5359 94.5141 20.0799C94.3328 20.6239 94.0715 21.0879 93.7301 21.4719C93.3995 21.8559 92.9888 22.1492 92.4981 22.3519C92.0181 22.5545 91.4688 22.6559 90.8501 22.6559ZM90.8501 20.7839C91.3195 20.7839 91.6821 20.6399 91.9381 20.3519C92.1941 20.0639 92.3221 19.6532 92.3221 19.1199V17.4079C92.3221 16.8745 92.1941 16.4639 91.9381 16.1759C91.6821 15.8879 91.3195 15.7439 90.8501 15.7439C90.3808 15.7439 90.0181 15.8879 89.7621 16.1759C89.5061 16.4639 89.3781 16.8745 89.3781 17.4079V19.1199C89.3781 19.6532 89.5061 20.0639 89.7621 20.3519C90.0181 20.6399 90.3808 20.7839 90.8501 20.7839ZM101.113 21.0559H101.033C100.959 21.2692 100.857 21.4719 100.729 21.6639C100.612 21.8559 100.457 22.0265 100.265 22.1759C100.073 22.3252 99.844 22.4425 99.5774 22.5279C99.3214 22.6132 99.0227 22.6559 98.6814 22.6559C97.8174 22.6559 97.1614 22.3732 96.7134 21.8079C96.276 21.2319 96.0574 20.4105 96.0574 19.3439V14.0639H98.4254V19.1359C98.4254 19.6479 98.516 20.0425 98.6974 20.3199C98.8787 20.5972 99.188 20.7359 99.6254 20.7359C99.8067 20.7359 99.988 20.7092 100.169 20.6559C100.351 20.6025 100.511 20.5279 100.649 20.4319C100.788 20.3252 100.9 20.1972 100.985 20.0479C101.071 19.8985 101.113 19.7225 101.113 19.5199V14.0639H103.481V22.4639H101.113V21.0559ZM110.517 21.0559H110.437C110.373 21.2799 110.271 21.4932 110.133 21.6959C109.994 21.8879 109.823 22.0585 109.621 22.2079C109.429 22.3465 109.205 22.4532 108.949 22.5279C108.703 22.6132 108.447 22.6559 108.181 22.6559C107.114 22.6559 106.309 22.2825 105.765 21.5359C105.221 20.7785 104.949 19.6852 104.949 18.2559C104.949 16.8265 105.221 15.7385 105.765 14.9919C106.309 14.2452 107.114 13.8719 108.181 13.8719C108.725 13.8719 109.205 14.0212 109.621 14.3199C110.047 14.6185 110.319 15.0025 110.437 15.4719H110.517V10.6239H112.885V22.4639H110.517V21.0559ZM108.965 20.7359C109.413 20.7359 109.781 20.6292 110.069 20.4159C110.367 20.1919 110.517 19.8879 110.517 19.5039V17.0239C110.517 16.6399 110.367 16.3412 110.069 16.1279C109.781 15.9039 109.413 15.7919 108.965 15.7919C108.517 15.7919 108.143 15.9519 107.845 16.2719C107.557 16.5812 107.413 17.0025 107.413 17.5359V18.9919C107.413 19.5252 107.557 19.9519 107.845 20.2719C108.143 20.5812 108.517 20.7359 108.965 20.7359Z" fill="#212121"/>
</svg>
